<?xml version="1.0" encoding="utf-8"?>
<!-- Generator: Adobe Illustrator 27.5.0, SVG Export Plug-In . SVG Version: 6.00 Build 0)  -->
<svg version="1.1" xmlns="http://www.w3.org/2000/svg" xmlns:xlink="http://www.w3.org/1999/xlink" x="0px" y="0px"
	 viewBox="0 0 750 500" style="enable-background:new 0 0 750 500;" xml:space="preserve">
<g id="BACKGROUND">
	<rect style="fill:#FFFFFF;" width="750" height="500"/>
	<g>
		<g>
			<path style="opacity:0.81;fill:#ECF1F7;" d="M51.629,240.441c-11.185-8.717-13.186-24.851-4.469-36.036
				c8.717-11.185,30.907-20.957,42.092-12.24c11.185,8.717-1.869,26.711-4.098,40.715C82.045,252.411,62.814,249.158,51.629,240.441
				z"/>
			<path style="opacity:0.47;fill:#ECF1F7;" d="M684.313,311.167c9.763,3.017,15.232,13.378,12.215,23.141
				c-3.017,9.763-15.474,22.016-25.237,18.998c-9.763-3.017-5.562-18.476-7.637-28.482
				C660.76,310.87,674.549,308.15,684.313,311.167z"/>
			<path style="opacity:0.47;fill:#ECF1F7;" d="M666.753,91.769c-4.27,13.817-18.933,21.557-32.75,17.287
				c-13.817-4.27-31.157-21.899-26.887-35.717c4.27-13.817,26.148-7.872,40.309-10.808
				C667.175,58.436,671.023,77.951,666.753,91.769z"/>
		</g>
		<g>
			<path style="fill:#ECF1F7;" d="M621.862,388.647c5.364-27.392-3.069-50.725-5.121-77.566
				c-1.942-25.411,6.793-46.809,11.669-71.029c4.34-21.555,2.971-45.954-2.358-67.114c-7.276-28.89-24.131-55.615-48.47-71.872
				c-37.924-25.331-88.591-22.207-130.594-4.609c-17.593,7.371-34.639,17.163-53.468,19.676c-27.461,3.666-54.15-8.568-80.874-15.88
				c-36.378-9.954-76.337-10.597-110.722,5.347c-38.987,18.079-66.776,58.735-63.65,103.428c1.416,20.251,8.866,40.221,6.162,60.349
				c-2.742,20.415-14.445,37.517-20.665,56.753c-9.208,28.477-9.444,71.424,7.864,97.87h476.934
				C614.897,413.183,619.415,401.143,621.862,388.647z"/>
			<g>
				<path style="opacity:0.47;fill:#ECF1F7;" d="M682.853,213.473c-2.879-30.176-16.889-60.387-41.196-81.957
					C603.781,97.905,546.428,89.5,496.141,97.353c-21.063,3.289-41.955,9.093-63.514,7.306
					c-31.445-2.606-59.121-20.738-87.736-34.018c-38.951-18.076-83.616-27.772-125.063-19.824
					c-46.994,9.011-85.561,42.855-90.22,87.694c-2.111,20.317,19.002,56.076,12.296,75.337
					c-6.802,19.536-56.344,79.415-55.188,124.906c1.198,47.149,13.457,60.489,30.555,85.246h14.365h476.934h30.847
					c10.747-25.07,20.058-44.059,7.776-76.235c-9.342-24.475,16.16-44.679,26.048-67.489
					C682.04,259.977,684.962,235.575,682.853,213.473z"/>
			</g>
		</g>
	</g>
	<circle style="opacity:0.58;fill:#3E479B;" cx="697.158" cy="271.377" r="4.594"/>
	<circle style="opacity:0.58;fill:#3E479B;" cx="351.077" cy="37.594" r="4.594"/>
	<path style="opacity:0.58;fill:#EF929C;" d="M668.063,398.988c0,1.973-1.6,3.573-3.573,3.573s-3.573-1.6-3.573-3.573
		c0-1.973,1.6-3.573,3.573-3.573S668.063,397.015,668.063,398.988z"/>
	<circle style="opacity:0.58;fill:#EF929C;" cx="110.148" cy="112.119" r="4.594"/>
	<circle style="opacity:0.58;fill:#3E479B;" cx="75.438" cy="284.649" r="3.573"/>
	<path style="opacity:0.58;fill:#3E479B;" d="M82.073,134.578c0,0.846-0.686,1.531-1.531,1.531s-1.531-0.686-1.531-1.531
		c0-0.846,0.686-1.531,1.531-1.531S82.073,133.733,82.073,134.578z"/>
	<path style="opacity:0.58;fill:#EF929C;" d="M474.563,48.534c-0.636,2.98-3.568,4.879-6.547,4.243
		c-2.98-0.636-4.879-3.568-4.243-6.547c0.636-2.98,3.568-4.879,6.547-4.243C473.299,42.624,475.199,45.555,474.563,48.534z"/>
	<path style="opacity:0.58;fill:#EF929C;" d="M57.019,313.965c-0.636,2.98-3.568,4.879-6.547,4.243
		c-2.98-0.636-4.879-3.568-4.243-6.547c0.636-2.98,3.568-4.879,6.547-4.243C55.756,308.054,57.656,310.986,57.019,313.965z"/>
	<path style="opacity:0.58;fill:#3E479B;" d="M426.481,82.03c-0.212,0.993-1.189,1.626-2.182,1.414
		c-0.993-0.212-1.626-1.189-1.414-2.182c0.212-0.993,1.189-1.626,2.182-1.414C426.06,80.06,426.693,81.037,426.481,82.03z"/>
</g>
<g id="OBJECTS">
	<g>
		<g>
			<g>
				<path style="opacity:0.47;fill:#FFFFFF;" d="M662.607,326.28h-96.271c-2.485,0-4.5-2.015-4.5-4.5V216.847
					c0-2.485,2.015-4.5,4.5-4.5h96.271c2.485,0,4.5,2.015,4.5,4.5V321.78C667.107,324.266,665.092,326.28,662.607,326.28z"/>
				<path style="fill:#FFFFFF;" d="M643.501,233.71h-58.061c-1.078,0-1.952-0.874-1.952-1.951v-8.078
					c0-1.078,0.874-1.951,1.952-1.951h58.061c1.078,0,1.951,0.874,1.951,1.951v8.078C645.453,232.836,644.579,233.71,643.501,233.71
					z"/>
				<path style="fill:#FFFFFF;" d="M643.501,242.993h-58.061c-1.078,0-1.952-0.874-1.952-1.951v-0.067
					c0-1.078,0.874-1.951,1.952-1.951h58.061c1.078,0,1.951,0.874,1.951,1.951v0.067
					C645.453,242.119,644.579,242.993,643.501,242.993z"/>
				<path style="fill:#FFFFFF;" d="M643.501,252.148h-58.061c-1.078,0-1.952-0.874-1.952-1.952v-0.067
					c0-1.078,0.874-1.951,1.952-1.951h58.061c1.078,0,1.951,0.874,1.951,1.951v0.067
					C645.453,251.274,644.579,252.148,643.501,252.148z"/>
				<path style="fill:#FFFFFF;" d="M587.487,265.649c0,2.76-2.237,4.997-4.997,4.997s-4.997-2.237-4.997-4.997
					c0-2.76,2.237-4.997,4.997-4.997S587.487,262.89,587.487,265.649z"/>
				<path style="fill:#FFFFFF;" d="M587.487,288.303c0,2.76-2.237,4.997-4.997,4.997s-4.997-2.237-4.997-4.997
					s2.237-4.997,4.997-4.997S587.487,285.543,587.487,288.303z"/>
				<path style="fill:#FFFFFF;" d="M587.487,310.29c0,2.76-2.237,4.997-4.997,4.997s-4.997-2.237-4.997-4.997
					c0-2.76,2.237-4.997,4.997-4.997S587.487,307.53,587.487,310.29z"/>
				<path style="fill:#FFFFFF;" d="M638.13,263.71h-47.812c-0.276,0-0.5-0.224-0.5-0.5c0-0.276,0.224-0.5,0.5-0.5h47.812
					c0.276,0,0.5,0.224,0.5,0.5C638.63,263.486,638.406,263.71,638.13,263.71z"/>
				<path style="fill:#FFFFFF;" d="M614.224,268.797h-23.905c-0.276,0-0.5-0.224-0.5-0.5c0-0.276,0.224-0.5,0.5-0.5h23.905
					c0.276,0,0.5,0.224,0.5,0.5C614.724,268.573,614.5,268.797,614.224,268.797z"/>
				<path style="fill:#FFFFFF;" d="M638.13,287.107h-47.812c-0.276,0-0.5-0.224-0.5-0.5c0-0.276,0.224-0.5,0.5-0.5h47.812
					c0.276,0,0.5,0.224,0.5,0.5C638.63,286.884,638.406,287.107,638.13,287.107z"/>
				<path style="fill:#FFFFFF;" d="M614.224,292.193h-23.905c-0.276,0-0.5-0.224-0.5-0.5c0-0.276,0.224-0.5,0.5-0.5h23.905
					c0.276,0,0.5,0.224,0.5,0.5C614.724,291.97,614.5,292.193,614.224,292.193z"/>
				<path style="fill:#FFFFFF;" d="M638.13,308.47h-47.812c-0.276,0-0.5-0.224-0.5-0.5c0-0.276,0.224-0.5,0.5-0.5h47.812
					c0.276,0,0.5,0.224,0.5,0.5C638.63,308.246,638.406,308.47,638.13,308.47z"/>
				<path style="fill:#FFFFFF;" d="M614.224,313.557h-23.905c-0.276,0-0.5-0.224-0.5-0.5c0-0.276,0.224-0.5,0.5-0.5h23.905
					c0.276,0,0.5,0.224,0.5,0.5C614.724,313.333,614.5,313.557,614.224,313.557z"/>
			</g>
		</g>
		<g>
			<path style="opacity:0.53;fill:#4C65BA;" d="M448.576,68.499h125.32c1.162,0,2.104,0.942,2.104,2.104v41.211
				c0,1.162-0.942,2.104-2.104,2.104h-90.268l-20.681,20.681v-20.681h-14.371c-1.162,0-2.104-0.942-2.104-2.104v-41.21
				C446.472,69.441,447.414,68.499,448.576,68.499z"/>
			<g>
				<path style="fill:#FFFFFF;" d="M466.599,82.283h89.043c0.559,0,1.013-0.283,1.013-0.631c0-0.348-0.453-0.631-1.013-0.631
					h-89.043c-0.559,0-1.013,0.283-1.013,0.631C465.586,82,466.039,82.283,466.599,82.283z"/>
				<path style="fill:#FFFFFF;" d="M466.599,103.31h89.043c0.559,0,1.013-0.283,1.013-0.631c0-0.348-0.453-0.631-1.013-0.631
					h-89.043c-0.559,0-1.013,0.283-1.013,0.631C465.586,103.028,466.039,103.31,466.599,103.31z"/>
				<g>
					<path style="fill:#FFFFFF;" d="M509.097,92.367h46.545c0.559,0,1.013-0.283,1.013-0.631c0-0.348-0.453-0.631-1.013-0.631
						h-46.545c-0.559,0-1.013,0.283-1.013,0.631C508.084,92.085,508.538,92.367,509.097,92.367z"/>
					<path style="fill:#FFFFFF;" d="M480.09,92.367h20.237c0.559,0,1.013-0.283,1.013-0.631c0-0.348-0.453-0.631-1.013-0.631H480.09
						c-0.559,0-1.013,0.283-1.013,0.631C479.078,92.085,479.531,92.367,480.09,92.367z"/>
				</g>
			</g>
		</g>
		<g>
			<g>
				<path style="opacity:0.47;fill:#599AF2;" d="M532.439,198.968h63.353c2.825,0,5.137-2.312,5.137-5.137v-20.119
					c0-2.825-2.312-5.137-5.137-5.137h-63.353c-2.825,0-5.137,2.312-5.137,5.137v20.119
					C527.303,196.656,529.614,198.968,532.439,198.968z"/>
			</g>
			<g>
				<g>
					<path style="fill:#FFFFFF;" d="M544.725,175.001h75.595c2.284,0,4.152-1.869,4.152-4.152v-23.158
						c0-2.284-1.869-4.152-4.152-4.152h-75.595c-2.284,0-4.152,1.869-4.152,4.152v23.158
						C540.573,173.132,542.441,175.001,544.725,175.001z"/>
					<path style="opacity:0.74;fill:#EF929C;" d="M544.725,175.001h75.595c2.284,0,4.152-1.869,4.152-4.152v-23.158
						c0-2.284-1.869-4.152-4.152-4.152h-75.595c-2.284,0-4.152,1.869-4.152,4.152v23.158
						C540.573,173.132,542.441,175.001,544.725,175.001z"/>
				</g>
				<g>
					<g>
						<path style="fill:#FFFFFF;" d="M597.839,162.915c-2.032,0-3.686-1.653-3.686-3.686c0-2.032,1.653-3.686,3.686-3.686
							c2.032,0,3.686,1.653,3.686,3.686C601.524,161.262,599.871,162.915,597.839,162.915z M597.839,156.544
							c-1.48,0-2.686,1.204-2.686,2.686s1.205,2.686,2.686,2.686c1.48,0,2.686-1.205,2.686-2.686S599.319,156.544,597.839,156.544z"
							/>
						<path style="fill:#FFFFFF;" d="M582.802,162.915c-2.032,0-3.686-1.653-3.686-3.686c0-2.032,1.653-3.686,3.686-3.686
							c2.032,0,3.686,1.653,3.686,3.686C586.487,161.262,584.834,162.915,582.802,162.915z M582.802,156.544
							c-1.48,0-2.686,1.204-2.686,2.686s1.205,2.686,2.686,2.686c1.48,0,2.686-1.205,2.686-2.686S584.282,156.544,582.802,156.544z"
							/>
						<path style="fill:#FFFFFF;" d="M568.784,162.915c-2.032,0-3.686-1.653-3.686-3.686c0-2.032,1.653-3.686,3.686-3.686
							c2.032,0,3.685,1.653,3.685,3.686C572.47,161.262,570.816,162.915,568.784,162.915z M568.784,156.544
							c-1.48,0-2.686,1.204-2.686,2.686s1.205,2.686,2.686,2.686c1.48,0,2.685-1.205,2.685-2.686S570.265,156.544,568.784,156.544z"
							/>
					</g>
				</g>
			</g>
		</g>
	</g>
	<g>
		<g>
			<g>
				<path style="fill:#373449;" d="M568.846,420.375l0.197-0.003l-0.04,1.944l-21.099,0.306l0.03-1.433
					c0.005-0.222,0.142-0.409,0.328-0.482c0.051-0.02,0.103-0.036,0.16-0.037L568.846,420.375z"/>
				<path style="fill:#373449;" d="M561.445,413.287l6.386-0.076c0.158-0.002,0.302,0.05,0.422,0.137
					c0.046,0.034,0.089,0.074,0.126,0.118c0.111,0.13,0.182,0.3,0.19,0.492l0.032,0.743l0.104,2.4l0.141,3.274l-20.425,0.296
					c-0.056,0.001-0.109,0.017-0.16,0.037c0.454-1.485,1.623-2.649,3.086-2.983l4.675-0.366c1.1-0.568,2.06-1.065,3.161-1.633
					l1.899-2.337c0.037-0.021,0.077-0.031,0.116-0.044c0.031-0.011,0.06-0.028,0.092-0.035
					C561.341,413.298,561.393,413.288,561.445,413.287z"/>
			</g>
			<path style="fill:#373449;" d="M606.451,342.072l-14.865-42.739l-0.198-1.588h-40.69v22.38c0,2.871,0.129,5.74,0.387,8.599
				l7.751,86.006h11.19l2.82-97.769l0.638-0.091l15.869,31.739l-11.935,26.853c-0.16,0.36-0.054,0.784,0.257,1.026l7.484,5.821
				c0.602,0.468,1.479,0.293,1.855-0.37l18.827-33.172C607,346.726,607.222,344.287,606.451,342.072z"/>
			<g>
				<path style="fill:#373449;" d="M574.773,381.045l-0.138-0.141l-1.34,1.409l14.77,15.07l0.987-1.039
					c0.153-0.161,0.187-0.39,0.106-0.573c-0.022-0.05-0.048-0.098-0.088-0.138L574.773,381.045z"/>
				<path style="fill:#373449;" d="M585.019,381.221l-4.482-4.55c-0.11-0.112-0.249-0.177-0.396-0.199
					c-0.057-0.009-0.115-0.01-0.172-0.006c-0.17,0.014-0.341,0.085-0.482,0.216l-0.546,0.505l-1.763,1.632l-2.405,2.226
					l14.298,14.588c0.039,0.04,0.066,0.089,0.088,0.138c0.723-1.374,0.711-3.024-0.093-4.291l-3.063-3.551
					c-0.381-1.178-0.714-2.207-1.095-3.385l0.296-2.997c-0.011-0.041-0.033-0.076-0.051-0.113c-0.014-0.03-0.023-0.062-0.04-0.09
					C585.085,381.301,585.055,381.258,585.019,381.221z"/>
			</g>
		</g>
		<g>
			<g>
				<path style="fill:#F9DCD2;" d="M601.56,256.038c-0.641-1.111-7.578,5.628-9.155,12.207c-0.062,0.26,0.131-0.227,0,0l5.944,8.405
					l-16.117,18.044l4.069,3.052c0,0,23.397-15.259,24.841-20.856C612.167,272.914,604.54,261.204,601.56,256.038z"/>
			</g>
			<g>
				<path style="fill:#F9DCD2;" d="M515.492,254.122c-0.36-0.898-1.233-2.139-3.199-3.73l-3.557-3.132
					c-0.261-0.23-0.643-0.253-0.91-0.054l-0.103,0.076c-0.284,0.211-0.352,0.605-0.159,0.918l1.595,2.581
					c0.303,0.491-0.054,1.092-0.625,1.05l-3.731-0.27c-0.037-0.003-0.073-0.008-0.11-0.016l-4.719-1.067
					c-0.362-0.082-0.715,0.118-0.816,0.461l-0.047,0.161c-0.111,0.376,0.119,0.784,0.509,0.901l4.885,1.468l-6.034-0.921
					c-0.396-0.061-0.751,0.208-0.789,0.598l-0.008,0.081c-0.035,0.358,0.213,0.697,0.573,0.785l6.072,1.474l-5.31-0.55
					c-0.471-0.049-0.839,0.356-0.742,0.815l0.041,0.192c0.062,0.29,0.298,0.521,0.593,0.579l5.2,1.021l-3.695,0.167
					c-0.307,0.014-0.561,0.221-0.631,0.514c-0.1,0.419,0.211,0.845,0.652,0.893l4.045,0.444c0.025,0.003,0.049,0.006,0.074,0.012
					c0.536,0.116,7.009,1.513,9.517,1.632c0.029,0.001,0.057-0.002,0.085-0.004l26.374,2.548c0.075-0.009,0.146-0.028,0.22-0.039
					c-1.302-3.92-2.1-7.961-2.42-12.049L515.492,254.122z"/>
				<path style="fill:#EF929C;" d="M601.889,256.173c-2.763-3.317-5.523-6.314-7.19-7.899c-4.439-4.219-12.569-3.661-12.569-3.661
					l-22.136,1.745c-2.541,0.2-5.07,0.543-7.573,1.027c-4.88,0.944-9.262,1.802-14.194,2.838c0.025,0.48,0.06,0.96,0.098,1.439
					c0.32,4.088,1.118,8.129,2.42,12.049c0.054,0.162,0.102,0.324,0.157,0.486c5.643-0.576,9.93-1.045,9.93-1.045l-0.133,45.785
					l40.69-9.155l-1.844-33.543l2.875,1.839C595.143,263.79,598.389,259.887,601.889,256.173z"/>
			</g>
		</g>
		<g>
			<path style="fill:#373449;" d="M592.665,236.643c-1.774-6.057-5.426-7.815-7.851-8.294c1.502-2.487,2.647-5.33,2.925-8.438
				c0.791-8.841-13.829-23.484-22.383-12.765c-2.815,0.057-6.114,1.311-9.393,5.272c-6.168,7.45-4.286,13.43-2.286,16.642
				c0.951,1.527,2.384,2.688,4.069,3.319l12.994,4.866c2.67,1,5.667,0.43,7.79-1.474c0.814-0.729,1.697-1.588,2.584-2.551
				c4.37,1.874,2.254,6.027,2.254,6.027c-4.351,9.374,0.993,14.065,5.014,16.819c1.742,1.193,4.143,0.225,4.521-1.853
				C593.684,249.924,594.465,242.788,592.665,236.643z"/>
			<g>
				<g>
					<path style="fill:#F9DCD2;" d="M579.558,223.148l-0.637-0.039c-0.001,0.004-0.016,0.016-0.038,0.033l-2.819,4.503
						c-3.74-1.882-5.079-6.677-5.494-10.934c-3.054,2.031-7.977,4.349-14.599,4.367l-1.115,10.904
						c-0.609,5.959,4.796,10.478,9.569,10.77l-0.073,3.626c-0.693,4.103,1.574,7.903,5.008,8.394
						c3.202,0.458,6.283-2.139,7.047-5.94l1.302-17.709c0.071-0.011,0.137-0.034,0.207-0.049l1.153,0.07
						c1.472,0.09,2.738-1.031,2.828-2.503l0.163-2.665C582.15,224.505,581.03,223.238,579.558,223.148z"/>
				</g>
				<polygon style="opacity:0.37;fill:#EF929C;" points="573.006,242.813 564.42,242.956 564.359,246.024 				"/>
			</g>
			<g>
				<g>
					<g>
						<g>
							<g>
								<path style="fill:#373449;" d="M559.713,224.669c-0.201,0.092-0.451,0.043-0.695,0.012
									c-0.245-0.037-0.492-0.067-0.708-0.083c-0.216-0.016-0.464-0.024-0.712-0.024c-0.246-0.006-0.5,0.005-0.686-0.116
									c-0.179-0.114-0.238-0.404,0.002-0.739c0.226-0.326,0.786-0.657,1.501-0.605c0.713,0.056,1.222,0.467,1.4,0.823
									C560.005,224.305,559.906,224.583,559.713,224.669z"/>
							</g>
							<g>
								<path style="fill:#373449;" d="M568.241,225.19c-0.201,0.092-0.451,0.042-0.695,0.012c-0.245-0.037-0.492-0.066-0.708-0.083
									c-0.216-0.016-0.464-0.024-0.712-0.024c-0.245-0.006-0.5,0.005-0.686-0.116c-0.179-0.113-0.238-0.404,0.002-0.738
									c0.226-0.326,0.786-0.657,1.501-0.605c0.713,0.056,1.222,0.466,1.399,0.823C568.533,224.825,568.434,225.104,568.241,225.19
									z"/>
							</g>
							<path style="fill:#373449;" d="M557.789,228.169L557.789,228.169c-0.304-0.03-0.527-0.3-0.497-0.604l0.107-1.101
								c0.03-0.304,0.3-0.527,0.604-0.497l0,0c0.304,0.029,0.527,0.3,0.497,0.604l-0.107,1.101
								C558.364,227.976,558.093,228.199,557.789,228.169z"/>
							<path style="fill:#373449;" d="M566.047,228.97L566.047,228.97c-0.304-0.03-0.527-0.3-0.497-0.604l0.107-1.101
								c0.03-0.304,0.3-0.527,0.604-0.497l0,0c0.304,0.03,0.527,0.3,0.497,0.604l-0.107,1.101
								C566.622,228.777,566.351,229,566.047,228.97z"/>
						</g>
					</g>
					<path style="fill:#EF929C;" d="M562.37,231.044c-0.005,0-0.01,0-0.016-0.001l-0.883-0.054c-0.543-0.033-1.021-0.34-1.279-0.82
						c-0.257-0.48-0.248-1.048,0.024-1.52l0.042-0.072l0.077-0.033c0.795-0.338,1.353-1.08,1.456-1.936l0.039-0.323
						c0.017-0.136,0.132-0.238,0.278-0.218c0.137,0.017,0.234,0.141,0.218,0.278l-0.039,0.323c-0.121,1.003-0.759,1.877-1.675,2.3
						c-0.148,0.306-0.143,0.661,0.02,0.964c0.176,0.326,0.5,0.535,0.87,0.557l0.883,0.054c0.138,0.008,0.242,0.127,0.234,0.265
						C562.611,230.941,562.502,231.044,562.37,231.044z"/>
					<g>
						<g>
							<path style="fill:#FFFFFF;" d="M565.625,235.705l-2.193-0.134c-0.495-0.03-0.871-0.456-0.841-0.95l0.131-2.151l5.077,0.31
								l-0.065,1.057C567.668,234.936,566.723,235.772,565.625,235.705z"/>
						</g>
					</g>
				</g>
			</g>
		</g>
	</g>
	<g>
		<g>
			<g>
				<path style="opacity:0.47;fill:#FFFFFF;" d="M242.53,367.833h-96.272c-2.485,0-4.5-2.015-4.5-4.5V258.4
					c0-2.485,2.015-4.5,4.5-4.5h96.272c2.485,0,4.5,2.015,4.5,4.5v104.933C247.03,365.818,245.015,367.833,242.53,367.833z"/>
				<path style="fill:#FFFFFF;" d="M223.424,275.262h-58.061c-1.078,0-1.952-0.874-1.952-1.952v-8.078
					c0-1.078,0.874-1.952,1.952-1.952h58.061c1.078,0,1.952,0.874,1.952,1.952v8.078
					C225.376,274.388,224.502,275.262,223.424,275.262z"/>
				<path style="fill:#FFFFFF;" d="M223.424,284.545h-58.061c-1.078,0-1.952-0.874-1.952-1.951v-0.067
					c0-1.078,0.874-1.952,1.952-1.952h58.061c1.078,0,1.952,0.874,1.952,1.952v0.067
					C225.376,283.671,224.502,284.545,223.424,284.545z"/>
				<path style="fill:#FFFFFF;" d="M223.424,293.7h-58.061c-1.078,0-1.952-0.874-1.952-1.951v-0.067
					c0-1.078,0.874-1.952,1.952-1.952h58.061c1.078,0,1.952,0.874,1.952,1.952v0.067C225.376,292.827,224.502,293.7,223.424,293.7z"
					/>
				<path style="fill:#FFFFFF;" d="M167.41,307.202c0,2.76-2.237,4.997-4.997,4.997c-2.76,0-4.997-2.237-4.997-4.997
					c0-2.76,2.237-4.997,4.997-4.997C165.173,302.205,167.41,304.442,167.41,307.202z"/>
				<path style="fill:#FFFFFF;" d="M167.41,329.855c0,2.76-2.237,4.997-4.997,4.997c-2.76,0-4.997-2.237-4.997-4.997
					s2.237-4.997,4.997-4.997C165.173,324.858,167.41,327.095,167.41,329.855z"/>
				<path style="fill:#FFFFFF;" d="M167.41,351.842c0,2.76-2.237,4.997-4.997,4.997c-2.76,0-4.997-2.237-4.997-4.997
					c0-2.76,2.237-4.997,4.997-4.997C165.173,346.845,167.41,349.082,167.41,351.842z"/>
				<path style="fill:#FFFFFF;" d="M218.053,305.263h-47.811c-0.276,0-0.5-0.224-0.5-0.5s0.224-0.5,0.5-0.5h47.811
					c0.276,0,0.5,0.224,0.5,0.5S218.329,305.263,218.053,305.263z"/>
				<path style="fill:#FFFFFF;" d="M194.147,310.349h-23.906c-0.276,0-0.5-0.224-0.5-0.5c0-0.276,0.224-0.5,0.5-0.5h23.906
					c0.276,0,0.5,0.224,0.5,0.5C194.647,310.125,194.424,310.349,194.147,310.349z"/>
				<path style="fill:#FFFFFF;" d="M218.053,328.66h-47.811c-0.276,0-0.5-0.224-0.5-0.5c0-0.276,0.224-0.5,0.5-0.5h47.811
					c0.276,0,0.5,0.224,0.5,0.5C218.553,328.436,218.329,328.66,218.053,328.66z"/>
				<path style="fill:#FFFFFF;" d="M194.147,333.746h-23.906c-0.276,0-0.5-0.224-0.5-0.5s0.224-0.5,0.5-0.5h23.906
					c0.276,0,0.5,0.224,0.5,0.5S194.424,333.746,194.147,333.746z"/>
				<path style="fill:#FFFFFF;" d="M218.053,350.022h-47.811c-0.276,0-0.5-0.224-0.5-0.5c0-0.276,0.224-0.5,0.5-0.5h47.811
					c0.276,0,0.5,0.224,0.5,0.5C218.553,349.799,218.329,350.022,218.053,350.022z"/>
				<path style="fill:#FFFFFF;" d="M194.147,355.108h-23.906c-0.276,0-0.5-0.224-0.5-0.5s0.224-0.5,0.5-0.5h23.906
					c0.276,0,0.5,0.224,0.5,0.5S194.424,355.108,194.147,355.108z"/>
			</g>
		</g>
		<g>
			<path style="opacity:0.79;fill:#3E479B;" d="M201.702,199.071h-82.931c-0.769,0-1.393,0.623-1.393,1.393v27.271
				c0,0.769,0.623,1.392,1.393,1.392h59.735l13.686,13.686v-13.686h9.51c0.769,0,1.393-0.623,1.393-1.392v-27.271
				C203.095,199.695,202.471,199.071,201.702,199.071z"/>
			<g>
				<path style="fill:#FFFFFF;" d="M189.776,208.193h-58.925c-0.37,0-0.67-0.187-0.67-0.417c0-0.231,0.3-0.418,0.67-0.418h58.925
					c0.37,0,0.67,0.187,0.67,0.418C190.446,208.006,190.146,208.193,189.776,208.193z"/>
				<path style="fill:#FFFFFF;" d="M189.776,222.108h-58.925c-0.37,0-0.67-0.187-0.67-0.417s0.3-0.417,0.67-0.417h58.925
					c0.37,0,0.67,0.187,0.67,0.417S190.146,222.108,189.776,222.108z"/>
				<g>
					<path style="fill:#FFFFFF;" d="M161.652,214.866h-30.802c-0.37,0-0.67-0.187-0.67-0.418s0.3-0.417,0.67-0.417h30.802
						c0.37,0,0.67,0.187,0.67,0.417S162.022,214.866,161.652,214.866z"/>
					<path style="fill:#FFFFFF;" d="M180.848,214.866h-13.392c-0.37,0-0.67-0.187-0.67-0.418s0.3-0.417,0.67-0.417h13.392
						c0.37,0,0.67,0.187,0.67,0.417S181.217,214.866,180.848,214.866z"/>
				</g>
			</g>
		</g>
		<g>
			<g>
				<path style="opacity:0.47;fill:#599AF2;" d="M281.742,180.674H171.779c-4.904,0-8.916-4.012-8.916-8.916v-34.921
					c0-4.904,4.012-8.916,8.916-8.916h109.963c4.904,0,8.916,4.012,8.916,8.916v34.921
					C290.658,176.662,286.646,180.674,281.742,180.674z"/>
			</g>
			<g>
				<g>
					<path style="fill:#FFFFFF;" d="M260.418,139.074h-131.21c-3.964,0-7.207-3.243-7.207-7.207V91.672
						c0-3.964,3.243-7.207,7.207-7.207h131.21c3.964,0,7.207,3.243,7.207,7.207v40.195
						C267.625,135.831,264.382,139.074,260.418,139.074z"/>
					<path style="opacity:0.74;fill:#EF929C;" d="M260.418,139.074h-131.21c-3.964,0-7.207-3.243-7.207-7.207V91.672
						c0-3.964,3.243-7.207,7.207-7.207h131.21c3.964,0,7.207,3.243,7.207,7.207v40.195
						C267.625,135.831,264.382,139.074,260.418,139.074z"/>
				</g>
				<g>
					<g>
						<path style="fill:#FFFFFF;" d="M168.227,117.729c-3.325,0-6.03-2.705-6.03-6.03s2.705-6.03,6.03-6.03
							c3.325,0,6.03,2.705,6.03,6.03S171.552,117.729,168.227,117.729z M168.227,106.67c-2.773,0-5.03,2.256-5.03,5.03
							s2.256,5.03,5.03,5.03c2.773,0,5.03-2.256,5.03-5.03S171.001,106.67,168.227,106.67z"/>
						<path style="fill:#FFFFFF;" d="M194.327,117.729c-3.325,0-6.029-2.705-6.029-6.03s2.704-6.03,6.029-6.03
							c3.325,0,6.03,2.705,6.03,6.03S197.652,117.729,194.327,117.729z M194.327,106.67c-2.773,0-5.029,2.256-5.029,5.03
							s2.256,5.03,5.029,5.03c2.773,0,5.03-2.256,5.03-5.03S197.101,106.67,194.327,106.67z"/>
						<path style="fill:#FFFFFF;" d="M218.658,117.729c-3.325,0-6.03-2.705-6.03-6.03s2.705-6.03,6.03-6.03
							c3.325,0,6.029,2.705,6.029,6.03S221.983,117.729,218.658,117.729z M218.658,106.67c-2.773,0-5.03,2.256-5.03,5.03
							s2.256,5.03,5.03,5.03c2.773,0,5.029-2.256,5.029-5.03S221.431,106.67,218.658,106.67z"/>
					</g>
				</g>
			</g>
		</g>
	</g>
	<g>
		<g>
			<rect x="341.966" y="365.614" style="fill:#3E479B;" width="65.49" height="47.948"/>
			<path style="fill:#3E479B;" d="M529.001,350.411H220.421c-4.564,0-8.265-3.7-8.265-8.265V159.421c0-4.564,3.7-8.265,8.265-8.265
				h308.579c4.564,0,8.265,3.7,8.265,8.265v182.725C537.265,346.711,533.565,350.411,529.001,350.411z"/>
			<path style="fill:#4C65BA;" d="M527.6,370.292H221.822c-5.338,0-9.665-5.101-9.665-11.393v-29.538h325.108v29.538
				C537.265,365.191,532.938,370.292,527.6,370.292z"/>
			<path style="fill:#FFFFFF;" d="M521.458,328.638H227.964c-0.98,0-1.774-0.794-1.774-1.774V166.689
				c0-0.98,0.794-1.774,1.774-1.774h293.494c0.98,0,1.774,0.794,1.774,1.774v160.176
				C523.232,327.844,522.438,328.638,521.458,328.638z"/>
			<path style="opacity:0.81;fill:#ECF1F7;" d="M500.896,317.666h-252.37c-0.98,0-1.774-0.794-1.774-1.774V178.383
				c0-0.98,0.794-1.774,1.774-1.774h252.37c0.98,0,1.774,0.794,1.774,1.774v137.509C502.67,316.872,501.876,317.666,500.896,317.666
				z"/>
			<path style="fill:#FFFFFF;" d="M374.711,362.021c-6.563,0-11.902-5.34-11.902-11.902s5.339-11.901,11.902-11.901
				c6.563,0,11.902,5.339,11.902,11.901S381.273,362.021,374.711,362.021z M374.711,339.217c-6.012,0-10.902,4.891-10.902,10.901
				c0,6.012,4.891,10.902,10.902,10.902c6.012,0,10.902-4.891,10.902-10.902C385.613,344.107,380.723,339.217,374.711,339.217z"/>
			<path style="fill:#4C65BA;" d="M444.294,421.748H305.128v-2.034c0-6.627,5.373-12,12-12h115.165c6.627,0,12,5.373,12,12V421.748z
				"/>
			<g>
				<circle style="opacity:0.9;fill:#FFFFFF;" cx="374.711" cy="213.76" r="8.689"/>
				<circle style="opacity:0.15;fill:#FFFFFF;" cx="374.711" cy="279.797" r="8.689"/>
				<circle style="opacity:0.5;fill:#FFFFFF;" cx="407.73" cy="246.779" r="8.689"/>
				<circle style="fill:#FFFFFF;" cx="341.692" cy="246.779" r="8.689"/>
				<path style="opacity:0.7;fill:#FFFFFF;" d="M404.203,229.575c-3.393,3.393-8.895,3.393-12.288,0
					c-3.393-3.393-3.393-8.895,0-12.288c3.393-3.393,8.895-3.393,12.288,0C407.596,220.68,407.596,226.182,404.203,229.575z"/>
				<circle style="opacity:0.1;fill:#FFFFFF;" cx="351.363" cy="270.127" r="8.689"/>
				<path style="opacity:0.3;fill:#FFFFFF;" d="M391.915,276.271c-3.393-3.393-3.393-8.895,0-12.288
					c3.393-3.393,8.895-3.393,12.288,0c3.393,3.393,3.393,8.895,0,12.288C400.809,279.664,395.308,279.664,391.915,276.271z"/>
				<path style="fill:#FFFFFF;" d="M345.219,229.575c-3.393-3.393-3.393-8.895,0-12.288c3.393-3.393,8.895-3.393,12.288,0
					c3.393,3.393,3.393,8.895,0,12.288C354.114,232.969,348.612,232.969,345.219,229.575z"/>
			</g>
			<g>
				<path style="opacity:0.47;fill:#599AF2;" d="M521.458,181.674H227.964c-0.98,0-1.774-0.794-1.774-1.774v-13.212
					c0-0.98,0.794-1.774,1.774-1.774h293.494c0.98,0,1.774,0.794,1.774,1.774V179.9C523.232,180.88,522.438,181.674,521.458,181.674
					z"/>
				<path style="fill:#ECF1F7;" d="M494.748,173.027c0,0.843-0.683,1.526-1.526,1.526c-0.843,0-1.526-0.683-1.526-1.526
					s0.683-1.526,1.526-1.526C494.065,171.502,494.748,172.185,494.748,173.027z"/>
				<path style="fill:#ECF1F7;" d="M511.024,173.027c0,0.843-0.683,1.526-1.526,1.526s-1.526-0.683-1.526-1.526
					s0.683-1.526,1.526-1.526S511.024,172.185,511.024,173.027z"/>
				<circle style="fill:#ECF1F7;" cx="501.36" cy="173.027" r="1.526"/>
			</g>
		</g>
		<g>
			<path style="fill:#599AF2;" d="M235.628,342.827l1.571-4.518c0.697-2.003,2.585-3.345,4.706-3.345h39.113
				c2.752,0,4.982,2.231,4.982,4.982v6.226v10.275v61.336c0,2.752-2.231,4.982-4.982,4.982H163.017c-2.752,0-4.982-2.23-4.982-4.982
				v-66.628c0-2.752,2.231-4.982,4.982-4.982h67.906C233.043,346.172,234.931,344.83,235.628,342.827z"/>
			<path style="opacity:0.12;fill:#FFFFFF;" d="M238.521,347.418l1.481-4.258c0.657-1.888,2.437-3.153,4.435-3.153h36.866
				c2.594,0,4.696,2.102,4.696,4.696v5.869v9.685v57.813c0,2.594-2.103,4.696-4.696,4.696H170.08c-2.593,0-4.696-2.102-4.696-4.696
				v-62.801c0-2.594,2.103-4.696,4.696-4.696h64.006C236.085,350.572,237.865,349.306,238.521,347.418z"/>
		</g>
	</g>
	<g>
		<g>
			<circle style="opacity:0.21;fill:#FFFFFF;" cx="431.666" cy="263.147" r="69.728"/>
			
				<ellipse transform="matrix(0.9755 -0.22 0.22 0.9755 -38.0389 101.2496)" style="opacity:0.81;fill:#ECF1F7;" cx="435.647" cy="221.441" rx="15.082" ry="15.082"/>
		</g>
		<path style="opacity:0.58;fill:#3E479B;" d="M431.666,334.875c-39.551,0-71.728-32.178-71.728-71.728s32.178-71.728,71.728-71.728
			s71.728,32.177,71.728,71.728S471.217,334.875,431.666,334.875z M431.666,195.419c-37.346,0-67.728,30.383-67.728,67.728
			c0,37.346,30.383,67.728,67.728,67.728c37.345,0,67.728-30.383,67.728-67.728C499.394,225.801,469.011,195.419,431.666,195.419z"
			/>
		<g>
			<g>
				<path style="fill:#3E479B;" d="M543.265,362.119l-45.944-45.003c-0.904-0.886-1.941-1.551-3.043-2.009
					c11.71-14.095,18.756-32.204,18.756-51.961c0-44.939-36.43-81.369-81.369-81.369s-81.369,36.43-81.369,81.369
					s36.43,81.369,81.369,81.369c18.809,0,36.113-6.399,49.893-17.115c0.48,1.277,1.23,2.474,2.268,3.492l45.944,45.003
					c1.876,1.838,4.312,2.754,6.746,2.754c2.501,0,5-0.967,6.888-2.895C547.132,371.95,547.069,365.845,543.265,362.119z
					 M361.938,263.147c0-38.51,31.218-69.728,69.728-69.728s69.728,31.218,69.728,69.728s-31.218,69.728-69.728,69.728
					S361.938,301.656,361.938,263.147z"/>
			</g>
		</g>
		<g>
			<g>
				<path style="fill:#599AF2;" d="M592.394,400.91l-66.849-66.849c-1.665-1.665-26.344,22.878-24.611,24.611l66.849,66.849
					c6.796,6.796,17.815,6.796,24.611,0v0C599.19,418.725,599.19,407.706,592.394,400.91z M587.349,412.245
					c0,3.377-2.737,6.114-6.114,6.114c-3.377,0-6.115-2.737-6.115-6.114v0c0-3.377,2.738-6.114,6.115-6.114
					C584.611,406.13,587.349,408.868,587.349,412.245L587.349,412.245z"/>
			</g>
			<g style="opacity:0.1;">
				<path style="fill:#FFFFFF;" d="M584.609,417.341c-0.967,0.642-2.127,1.018-3.375,1.018c-3.377,0-6.115-2.737-6.115-6.114v0
					c0-1.324,0.425-2.546,1.141-3.547c-15.258-15.772-37.782-38.954-51.366-52.912c-7.017-7.21-11.648-11.958-11.657-11.949
					c-6.615,6.473-13.228,13.91-12.303,14.836l66.849,66.849c6.796,6.796,17.815,6.796,24.611,0v0
					C592.429,425.486,589.439,422.353,584.609,417.341z"/>
			</g>
			<path style="fill:#FFFFFF;" d="M529.21,338.301l-24.129,24.129c-1.103,1.103-2.89,1.103-3.993,0l-4.352-4.352
				c-1.103-1.103-1.103-2.89,0-3.993l24.129-24.129c1.103-1.103,2.89-1.103,3.993,0l4.352,4.352
				C530.313,335.411,530.313,337.199,529.21,338.301z"/>
		</g>
	</g>
</g>

</svg>
